<svg xmlns="http://www.w3.org/2000/svg" width="56" height="58.531" viewBox="0 0 56 58.531">
  <g id="Group_2" data-name="Group 2" transform="translate(2236.501 658.087)">
    <ellipse id="Ellipse_1" data-name="Ellipse 1" cx="25" cy="24.5" rx="25" ry="24.5" transform="translate(-2236.501 -657.087)" fill="#ffb3a9"/>
    <path id="Path_1" data-name="Path 1" d="M12.727,0A12.727,12.727,0,1,1,0,12.727,12.727,12.727,0,0,1,12.727,0Z" transform="translate(-2211.394 -625.01)" fill="#fff"/>
    <g id="Path_2" data-name="Path 2" transform="translate(-2208.829 -622.446)" fill="#de9990">
      <path d="M 10.16260242462158 18.32520294189453 C 5.661732196807861 18.32520294189453 2.000002384185791 14.66347217559814 2.000002384185791 10.16260242462158 C 2.000002384185791 5.661732196807861 5.661732196807861 2.000002384185791 10.16260242462158 2.000002384185791 C 14.66347217559814 2.000002384185791 18.32520294189453 5.661732196807861 18.32520294189453 10.16260242462158 C 18.32520294189453 14.66347217559814 14.66347217559814 18.32520294189453 10.16260242462158 18.32520294189453 Z" stroke="none"/>
      <path d="M 10.16260242462158 4.000001907348633 C 6.764532089233398 4.000001907348633 4.000001907348633 6.764532089233398 4.000001907348633 10.16260242462158 C 4.000001907348633 13.56067276000977 6.764532089233398 16.32520294189453 10.16260242462158 16.32520294189453 C 13.56067276000977 16.32520294189453 16.32520294189453 13.56067276000977 16.32520294189453 10.16260242462158 C 16.32520294189453 6.764532089233398 13.56067276000977 4.000001907348633 10.16260242462158 4.000001907348633 M 10.16260242462158 1.9073486328125e-06 C 15.77525234222412 1.9073486328125e-06 20.32520294189453 4.549952507019043 20.32520294189453 10.16260242462158 C 20.32520294189453 15.77525234222412 15.77525234222412 20.32520294189453 10.16260242462158 20.32520294189453 C 4.549952507019043 20.32520294189453 1.9073486328125e-06 15.77525234222412 1.9073486328125e-06 10.16260242462158 C 1.9073486328125e-06 4.549952507019043 4.549952507019043 1.9073486328125e-06 10.16260242462158 1.9073486328125e-06 Z" stroke="none" fill="#de9990"/>
    </g>
    <g id="Ellipse_2" data-name="Ellipse 2" transform="translate(-2200.501 -658.087)" fill="#fbc5bd" stroke="#fff" stroke-width="2">
      <ellipse cx="10" cy="9.5" rx="10" ry="9.5" stroke="none"/>
      <ellipse cx="10" cy="9.5" rx="9" ry="8.5" fill="none"/>
    </g>
    <text id="TAMA" transform="translate(-2226.501 -630.088)" fill="#fff" font-size="11" font-family="AcuminPro-Bold, Acumin Pro" font-weight="700"><tspan x="0" y="0">TAMA</tspan></text>
  </g>
</svg>
